# xmcd
#
# Track frame offsets:
#   150
#   15656
#   31196
#   46252
#   61808
#   80128
#   100405
#   120253
#   133313
#   149492
#   166380
#   184296
#   199687
#   214061
#   231360
#   249821
#   269109
#   285805
#   302301
#
# Disc length: 4188 seconds
#
# Revision: 0
# Processed by: cddbd v1.5PL3 Copyright (c) Steve Scherf et al.
# Submitted via: Media_Universe 3.0
#
DISCID=0b105a13
DTITLE=Kenny Chesney - I Will Stand and Greatest Hits
DYEAR=1900
DGENRE=Country
TTITLE0=She's Got It All
TTITLE1=You in, I Win, We Lose
TTITLE2=She Gets That Way
TTITLE3=I Will Stand
TTITLE4=That's Why I'm Here
TTITLE5=Steamy Windows
TTITLE6=From Hillbilly Heaven To Honky Tonk Hell
TTITLE7=She Always Says It First
TTITLE8=Lonely, Needin' Lovin'
TTITLE9=A Chance
TTITLE10=I Lost It
TTITLE11=Don't Happen Twice
TTITLE12=All I Need To Know
TTITLE13=For The First Time
TTITLE14=Me And You
TTITLE15=Back Where I Came From
TTITLE16=How Forever Feels
TTITLE17=You Hand Me From Hello
TTITLE18=Baptism/Because Of Your Love/Tin Man/Fall In Love
EXTD=
EXTT0=
EXTT1=
EXTT2=
EXTT3=
EXTT4=
EXTT5=
EXTT6=
EXTT7=
EXTT8=
EXTT9=
EXTT10=
EXTT11=
EXTT12=
EXTT13=
EXTT14=
EXTT15=
EXTT16=
EXTT17=
EXTT18=
PLAYORDER=
